<svg id="Layer_1" data-name="Layer 1" xmlns="http://www.w3.org/2000/svg" viewBox="0 0 359.28 58.91"><defs><style>.cls-1{fill:#3eb44a;}</style></defs><title>UL_logo_reg_rbg</title><rect x="111.86" width="246.37" height="8.74"/><path class="cls-1" d="M27.35,36.58V68.35H18.13V36.58h-11V27.84H38.38v8.74Z" transform="translate(-7.15 -10.36)"/><path class="cls-1" d="M51.81,68.35H42.94V27.84h8.87V41.43c1.81-1.79,4.85-2.6,7.41-2.6,7.59,0,11,5.15,11,11.46V68.35H61.33V51.79c0-2.83-1.52-5-4.73-5a4.66,4.66,0,0,0-4.79,4.64Z" transform="translate(-7.15 -10.36)"/><path class="cls-1" d="M102.89,60.07c-1.4,5-6,9.14-13.37,9.14-8,0-15.12-5.67-15.12-15.33,0-9.26,6.95-15.17,14.48-15.17,9,0,14.53,5.5,14.53,14.76a18.14,18.14,0,0,1-.17,2.72H83c.18,3.24,3.15,5.56,6.6,5.56,3.21,0,5-1.51,5.83-3.76Zm-8.06-9.55c-.12-2.2-1.63-4.86-5.84-4.86a5.5,5.5,0,0,0-5.77,4.86Z" transform="translate(-7.15 -10.36)"/><path class="cls-1" d="M119,53.88v-26h9.22V52.43c0,4.37.92,7.81,5.5,7.81s5.51-3.44,5.51-7.81V27.84h9.22v26c0,10.3-6.88,15.39-14.73,15.39S119,64.18,119,53.88Z" transform="translate(-7.15 -10.36)"/><path class="cls-1" d="M163.05,68.35h-8.88V39.58h8.58v3.3c1.58-2.72,5.14-4.05,8.12-4.05,7.29,0,10.56,5.15,10.56,11.46V68.35h-8.87V51.79c0-2.83-1.52-5-4.73-5-2.92,0-4.78,2.15-4.78,5Z" transform="translate(-7.15 -10.36)"/><path class="cls-1" d="M216.28,63.19c0,2.61.18,4.52.23,5.16H208a19.56,19.56,0,0,1-.23-2.78c-1.35,2-4.26,3.41-7.77,3.41-8.17,0-14.35-6.25-14.35-15.1,0-8.57,5.83-15,14.06-15,5,0,7.12,1.86,7.82,3v-14h8.76ZM201.1,61.11c3.45,0,6.54-2.43,6.54-7.18s-3.09-7.12-6.54-7.12-6.54,2.32-6.54,7.12S197.66,61.11,201.1,61.11Z" transform="translate(-7.15 -10.36)"/><path class="cls-1" d="M248.91,60.07c-1.4,5-6,9.14-13.37,9.14-8,0-15.12-5.67-15.12-15.33,0-9.26,7-15.17,14.48-15.17,9,0,14.53,5.5,14.53,14.76a18.14,18.14,0,0,1-.17,2.72h-20.2c.18,3.24,3.15,5.56,6.6,5.56,3.21,0,5-1.51,5.84-3.76Zm-8-9.55c-.12-2.2-1.64-4.86-5.84-4.86a5.5,5.5,0,0,0-5.78,4.86Z" transform="translate(-7.15 -10.36)"/><path class="cls-1" d="M272.38,48.26a12.31,12.31,0,0,0-2.81-.29c-3.56,0-6.77,2.09-6.77,7.82V68.35h-8.87V39.58h8.58v3.88c1.52-3.24,5.19-4.17,7.53-4.17a9,9,0,0,1,2.34.29Z" transform="translate(-7.15 -10.36)"/><path class="cls-1" d="M276.81,68.35V27.84h8.87V68.35Z" transform="translate(-7.15 -10.36)"/><path class="cls-1" d="M291.39,68.35V39.58h8.87V68.35Z" transform="translate(-7.15 -10.36)"/><path class="cls-1" d="M314.83,68.35H306V39.58h8.58v3.3c1.58-2.72,5.14-4.05,8.11-4.05,7.3,0,10.57,5.15,10.57,11.46V68.35h-8.87V51.79c0-2.83-1.52-5-4.73-5a4.69,4.69,0,0,0-4.79,5Z" transform="translate(-7.15 -10.36)"/><path class="cls-1" d="M365.91,60.07c-1.4,5-6,9.14-13.37,9.14-8,0-15.12-5.67-15.12-15.33,0-9.26,6.95-15.17,14.48-15.17,9,0,14.53,5.5,14.53,14.76a18.14,18.14,0,0,1-.17,2.72h-20.2c.18,3.24,3.15,5.56,6.6,5.56,3.21,0,5-1.51,5.84-3.76Zm-8.06-9.55c-.11-2.2-1.63-4.86-5.83-4.86a5.5,5.5,0,0,0-5.78,4.86Z" transform="translate(-7.15 -10.36)"/><path class="cls-1" d="M295.76,26.68a5.15,5.15,0,1,1-5.13,5.15A5.21,5.21,0,0,1,295.76,26.68Z" transform="translate(-7.15 -10.36)"/></svg>